# xmcd
#
# Track frame offsets:
#	150
#	13371
#	29730
#	41830
#	57201
#	76043
#	85468
#	95628
#	108678
#	121350
#	134896
#	148535
#	161754
#	170692
#	180809
#	192826
#	201971
#	215865
#	231025
#	243745
#	259544
#	270827
#	291372
#	304946
#	317353
#	329322
#	339993
#
# Disc length: 4678 seconds
#
# Revision: 1
# Processed by: cddbd v1.5.2PL0 Copyright (c) Steve Scherf et al.
# Submitted via: EZCDAudioConverter 2.1.7.1
#
DISCID=9812441b
DTITLE=V/A - Let's Go Down and Blow Our Minds 1/3
DYEAR=1967
DGENRE=
TTITLE0=The Alan Bown - Toyland [Single]
TTITLE1=The Attack - Magic In The Air
TTITLE2=The Tickle - Subway (Smokey Pokey World)
TTITLE3=Episode Six - I Can See Through You
TTITLE4=Dantalian's Chariot - The Madman Running Through The Fields
TTITLE5=Geranium Pond - Dogs In Baskets
TTITLE6=The Scots Of St. James - Eiderdown Clown
TTITLE7=George Alexander - Dear Delilah
TTITLE8=The Sorrows - Pink Purple Yellow And Red
TTITLE9=The Mirage - Lazy Man [Alternate Version]
TTITLE10=The Crazy World Of Arthur Brown - Give Him A Flower
TTITLE11=Tintern Abbey - Tanya
TTITLE12=Fleur-De-Lys - Prodigal Son
TTITLE13=Lomax Alliance - See The People
TTITLE14=Mickey Finn - Time To Start Loving You
TTITLE15=The Fingers - I Hear The Sun
TTITLE16=Crocheted Doughnut Ring - Nice
TTITLE17=Good Thing Brigade - My House Is Burning
TTITLE18=The Motives - Ice Woman
TTITLE19=Louise - Look At The Sun
TTITLE20=Neo Maya - I Won't Hurt You
TTITLE21=Cliff Ward - Path Through The Forest
TTITLE22=Spencer Davis Group - Sanity Inspector [Single]
TTITLE23=Summer Set - 'Cos It's Over
TTITLE24=Those Fadin' Colours - Try Me On For Size
TTITLE25=Slender Plenty - Silver Tree Top School For Boys
TTITLE26=Guy Darrell - Evil Woman
EXTD=
EXTT0=
EXTT1=
EXTT2=
EXTT3=
EXTT4=
EXTT5=
EXTT6=
EXTT7=
EXTT8=
EXTT9=
EXTT10=
EXTT11=
EXTT12=
EXTT13=
EXTT14=
EXTT15=
EXTT16=
EXTT17=
EXTT18=
EXTT19=
EXTT20=
EXTT21=
EXTT22=
EXTT23=
EXTT24=
EXTT25=
EXTT26=
PLAYORDER=
